<svg version="1.1" id="Layer_1" xmlns="http://www.w3.org/2000/svg" xmlns:xlink="http://www.w3.org/1999/xlink" x="0px" y="0px"
	 width="100%" viewBox="0 0 534 121" enable-background="new 0 0 534 121" xml:space="preserve">
<path fill="#040404" opacity="1.000000" stroke="none" 
	d="
M448.000000,122.000000 
	C298.666656,122.000000 149.833328,122.000000 1.000000,122.000000 
	C1.000000,81.666664 1.000000,41.333332 1.000000,1.000000 
	C179.000000,1.000000 357.000000,1.000000 535.000000,1.000000 
	C535.000000,41.333332 535.000000,81.666664 535.000000,122.000000 
	C506.166656,122.000000 477.333344,122.000000 448.000000,122.000000 
M320.523407,97.165100 
	C320.187164,82.751335 320.589050,68.272034 319.316528,53.941399 
	C317.916870,38.178623 302.726318,30.003946 288.195282,33.412350 
	C281.676697,34.941341 275.576324,38.253292 269.018494,40.862686 
	C264.999420,35.727055 258.101440,32.689602 250.953873,32.796032 
	C243.862274,32.901630 236.809235,35.596481 229.674835,37.169983 
	C229.597244,36.765007 229.297119,35.198551 229.027512,33.791290 
	C221.442657,33.791290 214.186432,33.791290 206.952911,33.791290 
	C206.952911,56.441559 206.952911,78.796173 206.952911,101.181274 
	C214.960098,101.181274 222.543137,101.181274 230.521667,101.181274 
	C230.521667,90.075569 230.302856,79.278282 230.647598,68.499008 
	C230.759094,65.012299 231.488007,60.900284 233.512970,58.306744 
	C235.422394,55.861198 239.298828,54.120602 242.509583,53.735867 
	C246.373550,53.272854 249.346252,56.112072 250.428268,59.994167 
	C251.127991,62.504662 251.454010,65.192101 251.480103,67.804932 
	C251.590927,78.901962 251.527145,90.000732 251.527145,101.171143 
	C259.890869,101.171143 267.621307,101.171143 275.521820,101.171143 
	C275.521820,90.024452 275.453857,79.207466 275.571136,68.392502 
	C275.599365,65.788086 275.939758,63.102238 276.667542,60.608829 
	C277.965424,56.162502 282.956299,52.940132 287.475708,53.544399 
	C292.168091,54.171791 294.844696,57.140446 295.482269,61.749706 
	C296.001434,65.502647 296.429352,69.297005 296.487000,73.079262 
	C296.628601,82.372910 296.533295,91.670158 296.533295,101.497284 
	C304.112457,101.497284 311.241791,101.600014 318.358459,101.347359 
	C319.117340,101.320419 319.802490,99.216759 320.523407,97.165100 
M29.512978,76.821152 
	C29.512978,75.205193 29.512978,73.589233 29.512978,71.391068 
	C42.392715,71.391068 54.765629,71.391068 67.074944,71.391068 
	C67.074944,64.760353 67.074944,58.727177 67.074944,52.300827 
	C54.398090,52.300827 42.147266,52.300827 29.884300,52.300827 
	C29.884300,46.169876 29.884300,40.459064 29.884300,34.350510 
	C44.167229,34.350510 58.083393,34.350510 72.149475,34.350510 
	C72.149475,27.572968 72.149475,21.209820 72.149475,14.932453 
	C49.435059,14.932453 27.086702,14.932453 4.539658,14.932453 
	C4.539658,29.659527 4.539659,43.965153 4.539659,58.270779 
	C4.539658,72.525574 4.539658,86.780373 4.539658,101.083542 
	C13.191596,101.083542 21.228544,101.083542 29.513033,101.083542 
	C29.513033,93.039040 29.513033,85.398582 29.512978,76.821152 
M392.327423,97.060913 
	C394.688263,95.126434 397.049103,93.191963 399.883087,90.869781 
	C395.158142,85.917686 390.980164,81.538857 386.822601,77.181404 
	C373.777039,88.545425 357.701324,82.374069 356.828644,73.520775 
	C372.254913,73.520775 387.640442,73.520775 403.519104,73.520775 
	C403.519104,68.982994 403.765533,65.004059 403.466827,61.066467 
	C402.878418,53.310040 399.618408,46.649105 393.626465,41.721542 
	C384.084686,33.874676 373.202301,31.219683 360.865601,33.406666 
	C347.536804,35.769520 337.664001,42.416744 333.346283,55.330563 
	C329.102417,68.023560 330.741547,80.157692 340.067108,90.552025 
	C351.065735,102.811157 375.634033,105.847374 392.327423,97.060913 
M520.522034,101.485893 
	C522.429993,101.485893 524.337952,101.485893 526.182617,101.485893 
	C526.182617,94.729919 526.182617,88.814377 526.182617,82.394829 
	C516.006775,82.394829 506.123444,82.394829 495.253082,82.394829 
	C502.975098,73.587234 510.066711,65.613823 517.013794,57.516449 
	C519.675964,54.413544 523.116821,51.354752 524.200012,47.684738 
	C525.450867,43.446625 524.490845,38.556000 524.490845,33.886780 
	C504.242554,33.886780 484.565369,33.886780 464.840027,33.886780 
	C464.840027,40.169800 464.840027,46.075798 464.840027,52.616238 
	C474.180939,52.616238 483.212524,52.616238 493.282715,52.616238 
	C485.434540,61.752949 478.979706,70.667358 471.088776,78.045967 
	C463.731110,84.925957 464.115112,92.645645 464.897583,101.485939 
	C483.288971,101.485939 501.403748,101.485939 520.522034,101.485893 
M126.771988,90.157188 
	C125.430618,92.707191 124.089249,95.257202 122.575127,98.135605 
	C148.913849,98.135605 174.589279,98.135605 201.437469,98.135605 
	C188.034164,75.013695 175.119568,52.734890 161.878006,29.891998 
	C153.012238,45.122444 144.757202,59.309780 136.495514,73.493248 
	C133.386276,78.831123 130.261673,84.160034 126.771988,90.157188 
M103.601585,38.954540 
	C103.469795,37.198864 103.337997,35.443192 103.210808,33.748814 
	C95.491180,33.748814 88.240669,33.748814 80.851349,33.748814 
	C80.851349,56.362770 80.851349,78.723129 80.851349,101.101151 
	C88.898430,101.101151 96.613747,101.101151 104.524643,101.101151 
	C104.524643,90.719582 104.493187,80.739059 104.533218,70.758835 
	C104.575836,60.130890 110.137054,54.568871 120.674377,54.491516 
	C122.128784,54.480835 123.582390,54.361149 125.213150,54.283512 
	C125.213150,46.930889 125.213150,39.884304 125.213150,32.867359 
	C118.023521,32.255848 112.775398,33.960369 103.601585,38.954540 
M416.988800,33.496616 
	C413.355835,32.858070 413.494965,35.183247 413.501007,37.702106 
	C413.548920,57.662621 413.519440,77.623306 413.544250,97.583908 
	C413.545837,98.832443 413.804230,100.080673 413.925629,101.171715 
	C421.981049,101.171715 429.569366,101.171715 437.524414,101.171715 
	C437.524414,90.729507 437.479797,80.614426 437.536835,70.499908 
	C437.595001,60.187496 443.250427,54.547588 453.417358,54.490330 
	C455.016846,54.481323 456.615570,54.345764 458.302002,54.264511 
	C458.302002,46.890942 458.302002,39.972198 458.302002,32.377914 
	C450.402222,33.165554 442.992279,34.158073 436.879059,40.195675 
	C436.579559,37.547188 436.363617,35.637676 436.121490,33.496784 
	C429.834045,33.496784 423.869202,33.496784 416.988800,33.496616 
z"/>
<path fill="#FAFAFA" opacity="1.000000" stroke="none" 
	d="
M320.522644,97.620796 
	C319.802490,99.216759 319.117340,101.320419 318.358459,101.347359 
	C311.241791,101.600014 304.112457,101.497284 296.533295,101.497284 
	C296.533295,91.670158 296.628601,82.372910 296.487000,73.079262 
	C296.429352,69.297005 296.001434,65.502647 295.482269,61.749706 
	C294.844696,57.140446 292.168091,54.171791 287.475708,53.544399 
	C282.956299,52.940132 277.965424,56.162502 276.667542,60.608829 
	C275.939758,63.102238 275.599365,65.788086 275.571136,68.392502 
	C275.453857,79.207466 275.521820,90.024452 275.521820,101.171143 
	C267.621307,101.171143 259.890869,101.171143 251.527145,101.171143 
	C251.527145,90.000732 251.590927,78.901962 251.480103,67.804932 
	C251.454010,65.192101 251.127991,62.504662 250.428268,59.994167 
	C249.346252,56.112072 246.373550,53.272854 242.509583,53.735867 
	C239.298828,54.120602 235.422394,55.861198 233.512970,58.306744 
	C231.488007,60.900284 230.759094,65.012299 230.647598,68.499008 
	C230.302856,79.278282 230.521667,90.075569 230.521667,101.181274 
	C222.543137,101.181274 214.960098,101.181274 206.952911,101.181274 
	C206.952911,78.796173 206.952911,56.441559 206.952911,33.791290 
	C214.186432,33.791290 221.442657,33.791290 229.027512,33.791290 
	C229.297119,35.198551 229.597244,36.765007 229.674835,37.169983 
	C236.809235,35.596481 243.862274,32.901630 250.953873,32.796032 
	C258.101440,32.689602 264.999420,35.727055 269.018494,40.862686 
	C275.576324,38.253292 281.676697,34.941341 288.195282,33.412350 
	C302.726318,30.003946 317.916870,38.178623 319.316528,53.941399 
	C320.589050,68.272034 320.187164,82.751335 320.522644,97.620796 
z"/>
<path fill="#FCFCFC" opacity="1.000000" stroke="none" 
	d="
M29.513004,77.289642 
	C29.513033,85.398582 29.513033,93.039040 29.513033,101.083542 
	C21.228544,101.083542 13.191596,101.083542 4.539658,101.083542 
	C4.539658,86.780373 4.539658,72.525574 4.539659,58.270779 
	C4.539659,43.965153 4.539658,29.659527 4.539658,14.932453 
	C27.086702,14.932453 49.435059,14.932453 72.149475,14.932453 
	C72.149475,21.209820 72.149475,27.572968 72.149475,34.350510 
	C58.083393,34.350510 44.167229,34.350510 29.884300,34.350510 
	C29.884300,40.459064 29.884300,46.169876 29.884300,52.300827 
	C42.147266,52.300827 54.398090,52.300827 67.074944,52.300827 
	C67.074944,58.727177 67.074944,64.760353 67.074944,71.391068 
	C54.765629,71.391068 42.392715,71.391068 29.512978,71.391068 
	C29.512978,73.589233 29.512978,75.205193 29.513004,77.289642 
z"/>
<path fill="#FBFBFB" opacity="1.000000" stroke="none" 
	d="
M391.993774,97.232002 
	C375.634033,105.847374 351.065735,102.811157 340.067108,90.552025 
	C330.741547,80.157692 329.102417,68.023560 333.346283,55.330563 
	C337.664001,42.416744 347.536804,35.769520 360.865601,33.406666 
	C373.202301,31.219683 384.084686,33.874676 393.626465,41.721542 
	C399.618408,46.649105 402.878418,53.310040 403.466827,61.066467 
	C403.765533,65.004059 403.519104,68.982994 403.519104,73.520775 
	C387.640442,73.520775 372.254913,73.520775 356.828644,73.520775 
	C357.701324,82.374069 373.777039,88.545425 386.822601,77.181404 
	C390.980164,81.538857 395.158142,85.917686 399.883087,90.869781 
	C397.049103,93.191963 394.688263,95.126434 391.993774,97.232002 
M365.200165,50.402767 
	C360.202240,51.756176 357.539978,55.368610 355.264038,60.196873 
	C364.063507,60.196873 372.198029,60.196873 380.402863,60.196873 
	C379.046661,53.137264 374.908478,50.419964 365.200165,50.402767 
z"/>
<path fill="#FDFDFD" opacity="1.000000" stroke="none" 
	d="
M520.020264,101.485916 
	C501.403748,101.485939 483.288971,101.485939 464.897583,101.485939 
	C464.115112,92.645645 463.731110,84.925957 471.088776,78.045967 
	C478.979706,70.667358 485.434540,61.752949 493.282715,52.616238 
	C483.212524,52.616238 474.180939,52.616238 464.840027,52.616238 
	C464.840027,46.075798 464.840027,40.169800 464.840027,33.886780 
	C484.565369,33.886780 504.242554,33.886780 524.490845,33.886780 
	C524.490845,38.556000 525.450867,43.446625 524.200012,47.684738 
	C523.116821,51.354752 519.675964,54.413544 517.013794,57.516449 
	C510.066711,65.613823 502.975098,73.587234 495.253082,82.394829 
	C506.123444,82.394829 516.006775,82.394829 526.182617,82.394829 
	C526.182617,88.814377 526.182617,94.729919 526.182617,101.485893 
	C524.337952,101.485893 522.429993,101.485893 520.020264,101.485916 
z"/>
<path fill="#FC0404" opacity="1.000000" stroke="none" 
	d="
M126.958031,89.825111 
	C130.261673,84.160034 133.386276,78.831123 136.495514,73.493248 
	C144.757202,59.309780 153.012238,45.122444 161.878006,29.891998 
	C175.119568,52.734890 188.034164,75.013695 201.437469,98.135605 
	C174.589279,98.135605 148.913849,98.135605 122.575127,98.135605 
	C124.089249,95.257202 125.430618,92.707191 126.958031,89.825111 
M172.868973,69.859711 
	C172.206451,69.128326 171.613129,67.862724 170.868378,67.766281 
	C168.684021,67.483406 166.439438,67.665550 164.088043,67.665550 
	C165.176544,62.183537 166.073517,57.666138 166.970490,53.148739 
	C166.576050,52.982662 166.181625,52.816586 165.787186,52.650509 
	C160.428223,60.299728 155.069260,67.948952 149.300812,76.182640 
	C152.597366,76.429199 154.822067,76.595596 157.499451,76.795845 
	C155.483521,83.155190 153.643402,88.959908 151.803284,94.764626 
	C152.364090,95.068962 152.924881,95.373299 153.485687,95.677628 
	C159.795639,87.287331 166.105591,78.897034 172.868973,69.859711 
z"/>
<path fill="#FAFAFA" opacity="1.000000" stroke="none" 
	d="
M103.791092,39.295441 
	C112.775398,33.960369 118.023521,32.255848 125.213150,32.867359 
	C125.213150,39.884304 125.213150,46.930889 125.213150,54.283512 
	C123.582390,54.361149 122.128784,54.480835 120.674377,54.491516 
	C110.137054,54.568871 104.575836,60.130890 104.533218,70.758835 
	C104.493187,80.739059 104.524643,90.719582 104.524643,101.101151 
	C96.613747,101.101151 88.898430,101.101151 80.851349,101.101151 
	C80.851349,78.723129 80.851349,56.362770 80.851349,33.748814 
	C88.240669,33.748814 95.491180,33.748814 103.210808,33.748814 
	C103.337997,35.443192 103.469795,37.198864 103.791092,39.295441 
z"/>
<path fill="#FAFAFA" opacity="1.000000" stroke="none" 
	d="
M417.446564,33.496700 
	C423.869202,33.496784 429.834045,33.496784 436.121490,33.496784 
	C436.363617,35.637676 436.579559,37.547188 436.879059,40.195675 
	C442.992279,34.158073 450.402222,33.165554 458.302002,32.377914 
	C458.302002,39.972198 458.302002,46.890942 458.302002,54.264511 
	C456.615570,54.345764 455.016846,54.481323 453.417358,54.490330 
	C443.250427,54.547588 437.595001,60.187496 437.536835,70.499908 
	C437.479797,80.614426 437.524414,90.729507 437.524414,101.171715 
	C429.569366,101.171715 421.981049,101.171715 413.925629,101.171715 
	C413.804230,100.080673 413.545837,98.832443 413.544250,97.583908 
	C413.519440,77.623306 413.548920,57.662621 413.501007,37.702106 
	C413.494965,35.183247 413.355835,32.858070 417.446564,33.496700 
z"/>
<path fill="#1B1B1B" opacity="1.000000" stroke="none" 
	d="
M365.601501,50.397560 
	C374.908478,50.419964 379.046661,53.137264 380.402863,60.196873 
	C372.198029,60.196873 364.063507,60.196873 355.264038,60.196873 
	C357.539978,55.368610 360.202240,51.756176 365.601501,50.397560 
z"/>
<path fill="#FFF0F0" opacity="1.000000" stroke="none" 
	d="
M172.642258,70.183228 
	C166.105591,78.897034 159.795639,87.287331 153.485687,95.677628 
	C152.924881,95.373299 152.364090,95.068962 151.803284,94.764626 
	C153.643402,88.959908 155.483521,83.155190 157.499451,76.795845 
	C154.822067,76.595596 152.597366,76.429199 149.300812,76.182640 
	C155.069260,67.948952 160.428223,60.299728 165.787186,52.650509 
	C166.181625,52.816586 166.576050,52.982662 166.970490,53.148739 
	C166.073517,57.666138 165.176544,62.183537 164.088043,67.665550 
	C166.439438,67.665550 168.684021,67.483406 170.868378,67.766281 
	C171.613129,67.862724 172.206451,69.128326 172.642258,70.183228 
z"/>
</svg>